<svg xmlns="http://www.w3.org/2000/svg" viewBox="0 0 841.9 595.3">
 <symbol id="icon-logo-instagram" viewBox="0 0 512 512">
 <path d="M349.33 69.33a93.62 93.62 0 0193.34 93.34v186.66a93.62 93.62 0 01-93.34 93.34H162.67a93.62 93.62 0 01-93.34-93.34V162.67a93.62 93.62 0 0193.34-93.34h186.66m0-37.33H162.67C90.8 32 32 90.8 32 162.67v186.66C32 421.2 90.8 480 162.67 480h186.66C421.2 480 480 421.2 480 349.33V162.67C480 90.8 421.2 32 349.33 32z"/><path d="M377.33 162.67a28 28 0 1128-28 27.94 27.94 0 01-28 28zM256 181.33A74.67 74.67 0 11181.33 256 74.75 74.75 0 01256 181.33m0-37.33a112 112 0 10112 112 112 112 0 00-112-112z"/>
</symbol>
 <symbol id="icon-logo-facebook" viewBox="0 0 512 512">
 <path d="M480 257.35c0-123.7-100.3-224-224-224s-224 100.3-224 224c0 111.8 81.9 204.47 189 221.29V322.12h-56.89v-64.77H221V208c0-56.13 33.45-87.16 84.61-87.16 24.51 0 50.15 4.38 50.15 4.38v55.13H327.5c-27.81 0-36.51 17.26-36.51 35v42h62.12l-9.92 64.77H291v156.54c107.1-16.81 189-109.48 189-221.31z" fill-rule="evenodd"/>
 </symbol>
 <symbol id="icon-logo-vk" viewBox="0 0 512 512">
 <path d="M484.7 132c3.56-11.28 0-19.48-15.75-19.48h-52.37c-13.21 0-19.31 7.18-22.87 14.86 0 0-26.94 65.6-64.56 108.13-12.2 12.3-17.79 16.4-24.4 16.4-3.56 0-8.14-4.1-8.14-15.37V131.47c0-13.32-4.06-19.47-15.25-19.47H199c-8.14 0-13.22 6.15-13.22 12.3 0 12.81 18.81 15.89 20.84 51.76V254c0 16.91-3 20-9.66 20-17.79 0-61-66.11-86.92-141.44C105 117.64 99.88 112 86.66 112H33.79C18.54 112 16 119.17 16 126.86c0 13.84 17.79 83.53 82.86 175.77 43.21 63 104.72 96.86 160.13 96.86 33.56 0 37.62-7.69 37.62-20.5v-47.66c0-15.37 3.05-17.93 13.73-17.93 7.62 0 21.35 4.09 52.36 34.33C398.28 383.6 404.38 400 424.21 400h52.36c15.25 0 22.37-7.69 18.3-22.55-4.57-14.86-21.86-36.38-44.23-62-12.2-14.34-30.5-30.23-36.09-37.92-7.62-10.25-5.59-14.35 0-23.57-.51 0 63.55-91.22 70.15-122" fill-rule="evenodd"/>
 </symbol>
 <symbol id="icon-nav" viewBox="0 0 38.85 38.85" style="enable-background:new 0 0 38.85 38.85;" xml:space="preserve">
	<path d="M37.85,28.985H1c-0.553,0-1,0.448-1,1c0,0.552,0.447,1,1,1h36.85c0.553,0,1-0.448,1-1   C38.85,29.433,38.403,28.985,37.85,28.985z"/>
	<path d="M37.85,18.425H1c-0.553,0-1,0.448-1,1c0,0.552,0.447,1,1,1h36.85c0.553,0,1-0.448,1-1   C38.85,18.873,38.403,18.425,37.85,18.425z"/>
	<path d="M1,9.866h36.85c0.553,0,1-0.448,1-1c0-0.552-0.447-1-1-1H1c-0.553,0-1,0.448-1,1C0,9.418,0.447,9.866,1,9.866z"/>
</symbol>
<symbol id="icon-login" viewBox="0 0 32 32">
<path d="M16,16A7,7,0,1,0,9,9,7,7,0,0,0,16,16ZM16,4a5,5,0,1,1-5,5A5,5,0,0,1,16,4Z"/><path d="M17,18H15A11,11,0,0,0,4,29a1,1,0,0,0,1,1H27a1,1,0,0,0,1-1A11,11,0,0,0,17,18ZM6.06,28A9,9,0,0,1,15,20h2a9,9,0,0,1,8.94,8Z"/>
</symbol>
<symbol id="icon-cart" viewBox="0 0 485.196 485.196" style="enable-background:new 0 0 485.196 485.196;" xml:space="preserve">

		<polygon points="85.736,45.479 0,45.479 0,75.806 65.892,75.806 172.035,318.405 424.543,318.405 424.543,288.084     191.875,288.084   "/>
		<path d="M151.628,106.131l60.654,151.631h212.261l60.653-151.631H151.628z M404.05,227.435h-171.23l-36.396-90.978H440.42    L404.05,227.435z"/>
		<path d="M227.443,348.737c-25.127,0-45.488,20.372-45.488,45.489c0,25.109,20.36,45.49,45.488,45.49    c25.109,0,45.476-20.381,45.476-45.49C272.919,369.109,252.552,348.737,227.443,348.737z M227.443,409.386    c-8.363,0-15.161-6.81-15.161-15.159c0-8.354,6.797-15.163,15.161-15.163c8.366,0,15.164,6.81,15.164,15.163    C242.606,402.576,235.809,409.386,227.443,409.386z"/>
		<path d="M379.058,348.737c-25.113,0-45.49,20.372-45.49,45.489c0,25.109,20.377,45.49,45.49,45.49s45.485-20.381,45.485-45.49    C424.543,369.109,404.171,348.737,379.058,348.737z M379.058,409.386c-8.35,0-15.158-6.81-15.158-15.159    c0-8.354,6.809-15.163,15.158-15.163c8.345,0,15.163,6.81,15.163,15.163C394.221,402.576,387.412,409.386,379.058,409.386z"/>

</symbol>
<symbol id="icon-logout" viewBox="0 0 32 32">
<line class="cls-1" x1="15.92" x2="28.92" y1="16" y2="16"/>
<path d="M23.93,25v3h-16V4h16V7h2V3a1,1,0,0,0-1-1h-18a1,1,0,0,0-1,1V29a1,1,0,0,0,1,1h18a1,1,0,0,0,1-1V25Z"/>
<line class="cls-1" x1="28.92" x2="24.92" y1="16" y2="20"/>
<line class="cls-1" x1="28.92" x2="24.92" y1="16" y2="12"/>
<line class="cls-1" x1="24.92" x2="24.92" y1="8.09" y2="6.09"/>
<line class="cls-1" x1="24.92" x2="24.92" y1="26" y2="24"/>
</symbol>
</svg>



